<svg width="0" height="0" class="hidden">
  <symbol version="1.0" xmlns="http://www.w3.org/2000/svg" preserveAspectRatio="xMidYMid meet" viewBox="0 0 40.000000 40.000000" id="chevron">
    <metadata>Created by potrace 1.16, written by Peter Selinger 2001-2019</metadata>
    <g transform="translate(0.000000,40.000000) scale(0.100000,-0.100000)" fill="#000000" stroke="none">
      <path d="M118 253 l-68 -46 0 -64 c0 -49 3 -62 13 -57 6 4 38 25 69 46 31 21
62 38 68 38 6 0 37 -17 68 -38 31 -21 63 -42 70 -46 9 -5 12 8 12 57 l0 64
-70 47 c-38 25 -75 46 -82 45 -7 0 -43 -21 -80 -46z"></path>
    </g>
  </symbol>
  <symbol version="1.0" xmlns="http://www.w3.org/2000/svg" preserveAspectRatio="xMidYMid meet" viewBox="0 0 40.000000 40.000000" id="clock">
    <metadata>Created by potrace 1.16, written by Peter Selinger 2001-2019</metadata>
    <g transform="translate(0.000000,40.000000) scale(0.100000,-0.100000)" fill="#000000" stroke="none">
      <path d="M177 384 c-4 -4 -7 -14 -7 -23 0 -9 -22 -28 -49 -43 -63 -35 -85 -78
-79 -161 4 -55 8 -63 45 -98 70 -65 156 -65 226 0 37 35 41 43 45 98 6 82 -16
126 -79 161 -29 16 -49 35 -51 47 -3 20 -37 32 -51 19z m113 -112 c68 -68 60
-157 -19 -209 -112 -75 -251 48 -192 169 26 55 63 77 125 78 43 0 53 -4 86
-38z"></path>
    </g>
  </symbol>
  <symbol version="1.0" xmlns="http://www.w3.org/2000/svg" preserveAspectRatio="xMidYMid meet" viewBox="0 0 40.000000 40.000000" id="computer">
    <metadata>Created by potrace 1.16, written by Peter Selinger 2001-2019</metadata>
    <g transform="translate(0.000000,40.000000) scale(0.100000,-0.100000)" fill="#000000" stroke="none">
      <path d="M12 228 l3 -133 185 0 185 0 3 133 3 132 -191 0 -191 0 3 -132z m348
22 l0 -90 -160 0 -160 0 0 90 0 90 160 0 160 0 0 -90z"></path>
    </g>
  </symbol>
  <symbol version="1.0" xmlns="http://www.w3.org/2000/svg" preserveAspectRatio="xMidYMid meet" viewBox="0 0 40.000000 40.000000" id="easy">
    <metadata>Created by potrace 1.16, written by Peter Selinger 2001-2019</metadata>
    <g transform="translate(0.000000,40.000000) scale(0.100000,-0.100000)" fill="#000000" stroke="none">
      <path d="M224 289 l-71 -71 -31 31 c-23 23 -40 31 -67 31 -48 0 -54 -22 -18
-63 16 -19 35 -55 43 -80 9 -33 26 -59 56 -87 62 -57 82 -54 163 25 57 56 64
67 54 82 -7 10 -22 37 -34 61 l-23 42 28 29 c33 35 31 65 -4 69 -19 2 -41 -13
-96 -69z m55 -5 c-40 -41 -42 -45 -23 -50 15 -4 20 -11 17 -25 -4 -15 0 -19
18 -19 18 0 20 -3 11 -12 -18 -18 -15 -28 10 -28 19 0 15 -8 -32 -55 -30 -30
-62 -55 -72 -55 -32 0 -86 58 -104 113 -9 29 -26 62 -37 74 -11 13 -18 26 -15
29 11 10 46 -15 65 -46 9 -17 22 -30 28 -30 6 0 46 36 90 80 43 44 81 77 84
74 3 -2 -15 -25 -40 -50z"></path>
    </g>
  </symbol>
  <symbol version="1.0" xmlns="http://www.w3.org/2000/svg" preserveAspectRatio="xMidYMid meet" viewBox="0 0 40.000000 40.000000" id="growth">
    <metadata>Created by potrace 1.16, written by Peter Selinger 2001-2019</metadata>
    <g transform="translate(0.000000,40.000000) scale(0.100000,-0.100000)" fill="#000000" stroke="none">
      <path d="M310 390 c0 -5 10 -10 22 -10 20 0 18 -4 -19 -42 -36 -36 -44 -40
-58 -28 -14 12 -22 7 -64 -34 -43 -42 -49 -45 -61 -31 -12 14 -20 10 -72 -42
-32 -31 -58 -61 -58 -65 0 -19 28 -4 71 38 41 40 47 43 59 29 12 -14 18 -11
60 30 43 43 49 46 69 34 19 -12 25 -9 71 36 43 43 50 46 50 27 0 -12 5 -22 10
-22 6 0 10 20 10 45 l0 45 -45 0 c-25 0 -45 -4 -45 -10z"></path>
    </g>
  </symbol>
  <symbol version="1.0" xmlns="http://www.w3.org/2000/svg" preserveAspectRatio="xMidYMid meet" viewBox="0 0 40.000000 40.000000" id="line">
    <metadata>Created by potrace 1.16, written by Peter Selinger 2001-2019</metadata>
    <g transform="translate(0.000000,40.000000) scale(0.100000,-0.100000)" fill="#000000" stroke="none"></g>
  </symbol>
  <symbol version="1.0" xmlns="http://www.w3.org/2000/svg" preserveAspectRatio="xMidYMid meet" viewBox="0 0 40.000000 40.000000" id="menu">
    <metadata>Created by potrace 1.16, written by Peter Selinger 2001-2019</metadata>
    <g transform="translate(0.000000,40.000000) scale(0.100000,-0.100000)" fill="#000000" stroke="none">
      <path d="M37 363 c-4 -3 -7 -77 -7 -164 0 -156 0 -159 22 -164 13 -3 88 -4
168 -3 l145 3 3 145 c1 80 0 155 -3 168 -5 22 -8 22 -164 22 -87 0 -161 -3
-164 -7z m301 -25 c17 -17 17 -259 0 -276 -17 -17 -259 -17 -276 0 -17 17 -17
259 0 276 17 17 259 17 276 0z"></path>
    </g>
  </symbol>
  <symbol xmlns="http://www.w3.org/2000/svg" viewBox="0 0 50 50" id="settings">
    <path d="M 32.21875 2.0625 L 31.4375 2.375 L 28.625 3.46875 L 27.84375 3.78125 L 28.03125 4.59375 L 28.625 7.59375 C 28.332031 7.886719 28.019531 8.230469 27.6875 8.59375 L 24.71875 7.9375 L 23.90625 7.75 L 23.59375 8.5 L 22.375 11.3125 L 22.0625 12.0625 L 22.75 12.53125 L 25.3125 14.25 C 25.28125 14.738281 25.285156 15.230469 25.3125 15.71875 L 22.6875 17.34375 L 21.96875 17.78125 L 22.28125 18.5625 L 23.375 21.375 L 23.6875 22.15625 L 24.5 21.96875 L 27.5 21.375 C 27.804688 21.738281 28.140625 22.066406 28.5 22.375 L 27.8125 25.375 L 27.625 26.1875 L 28.40625 26.53125 L 31.21875 27.71875 L 31.96875 28.03125 L 32.4375 27.34375 L 34.15625 24.78125 C 34.644531 24.8125 35.136719 24.808594 35.625 24.78125 L 37.25 27.4375 L 37.6875 28.125 L 38.46875 27.84375 L 42.0625 26.40625 L 41.875 25.59375 L 41.1875 22.3125 C 41.5625 21.996094 41.902344 21.65625 42.21875 21.28125 L 45.25 22.0625 L 46.09375 22.28125 L 46.40625 21.5 L 47.625 18.6875 L 47.96875 17.90625 L 47.21875 17.4375 L 44.59375 15.84375 C 44.625 15.355469 44.621094 14.863281 44.59375 14.375 L 47.21875 12.75 L 47.9375 12.3125 L 47.625 11.53125 L 46.53125 8.71875 L 46.21875 7.9375 L 45.375 8.125 L 42.3125 8.8125 C 42.007813 8.449219 41.671875 8.121094 41.3125 7.8125 L 41.96875 4.8125 L 42.15625 4 L 41.40625 3.6875 L 38.59375 2.46875 L 37.8125 2.15625 L 37.34375 2.875 L 35.75 5.40625 C 35.289063 5.359375 34.789063 5.402344 34.28125 5.4375 L 32.65625 2.78125 Z M 31.375 4.53125 L 32.84375 6.9375 L 33.21875 7.53125 L 33.90625 7.375 C 34.613281 7.21875 35.28125 7.304688 36.1875 7.40625 L 36.8125 7.46875 L 37.15625 6.9375 L 38.59375 4.65625 L 39.84375 5.1875 L 39.21875 7.875 L 39.0625 8.53125 L 39.625 8.90625 C 40.238281 9.34375 40.75 9.855469 41.1875 10.46875 L 41.5625 11.03125 L 42.21875 10.875 L 44.96875 10.25 L 45.46875 11.5 L 43.0625 12.9375 L 42.53125 13.28125 L 42.59375 13.90625 C 42.6875 14.742188 42.6875 15.445313 42.59375 16.28125 L 42.53125 16.90625 L 43.0625 17.25 L 45.4375 18.71875 L 44.9375 19.90625 L 42.15625 19.21875 L 41.46875 19.0625 L 41.09375 19.625 C 40.65625 20.238281 40.144531 20.75 39.53125 21.1875 L 39 21.5625 L 39.125 22.21875 L 39.75 25.1875 L 38.5 25.65625 L 37.0625 23.28125 L 36.71875 22.75 L 36.09375 22.8125 C 35.257813 22.90625 34.554688 22.90625 33.71875 22.8125 L 33.09375 22.75 L 32.78125 23.25 L 31.25 25.5625 L 29.96875 25 L 30.5625 22.3125 L 30.71875 21.6875 L 30.1875 21.28125 C 29.574219 20.84375 29.0625 20.332031 28.625 19.71875 L 28.25 19.1875 L 27.59375 19.3125 L 24.90625 19.875 L 24.4375 18.625 L 26.8125 17.15625 L 27.375 16.8125 L 27.28125 16.1875 C 27.1875 15.351563 27.1875 14.648438 27.28125 13.8125 L 27.375 13.21875 L 26.84375 12.875 L 24.53125 11.34375 L 25.0625 10.0625 L 27.78125 10.6875 L 28.375 10.8125 L 28.75 10.34375 C 29.320313 9.679688 29.90625 9.09375 30.40625 8.59375 L 30.78125 8.21875 L 30.6875 7.71875 L 30.125 5.03125 Z M 35 10 C 32.25 10 30 12.25 30 15 C 30 17.75 32.25 20 35 20 C 37.75 20 40 17.75 40 15 C 40 12.25 37.75 10 35 10 Z M 35 12 C 36.667969 12 38 13.332031 38 15 C 38 16.667969 36.667969 18 35 18 C 33.332031 18 32 16.667969 32 15 C 32 13.332031 33.332031 12 35 12 Z M 13.53125 20 L 13.40625 20.84375 L 12.90625 24.09375 C 12.363281 24.265625 11.839844 24.515625 11.34375 24.78125 L 7.90625 22.28125 L 4.40625 25.78125 L 4.875 26.46875 L 6.78125 29.21875 C 6.511719 29.753906 6.273438 30.289063 6.09375 30.8125 L 2.8125 31.40625 L 2 31.5625 L 2 36.4375 L 2.8125 36.59375 L 6.09375 37.1875 C 6.269531 37.734375 6.511719 38.246094 6.78125 38.75 L 4.8125 41.40625 L 4.28125 42.09375 L 7.78125 45.59375 L 8.46875 45.125 L 11.21875 43.21875 C 11.753906 43.488281 12.289063 43.726563 12.8125 43.90625 L 13.3125 47.15625 L 13.4375 48 L 18.34375 48 L 18.46875 47.1875 L 19.09375 43.90625 C 19.636719 43.734375 20.160156 43.484375 20.65625 43.21875 L 24.09375 45.71875 L 27.59375 42.21875 L 27.125 41.53125 L 25.125 38.75 C 25.386719 38.222656 25.636719 37.703125 25.8125 37.1875 L 29.1875 36.59375 L 30 36.4375 L 30 31.53125 L 25.78125 30.90625 C 25.609375 30.367188 25.390625 29.839844 25.125 29.34375 L 27.125 26.59375 L 27.59375 25.90625 L 27.03125 25.3125 L 24.71875 22.90625 L 24.125 22.28125 L 23.40625 22.78125 L 20.65625 24.78125 C 20.128906 24.519531 19.609375 24.269531 19.09375 24.09375 L 18.59375 20.84375 L 18.46875 20 Z M 15.25 22 L 16.75 22 L 17.3125 25.5625 L 17.875 25.75 C 18.773438 26.050781 19.613281 26.332031 20.28125 26.75 L 20.84375 27.09375 L 21.375 26.71875 L 23.875 24.90625 L 25 26.09375 L 23.1875 28.625 L 22.78125 29.15625 L 23.15625 29.71875 C 23.605469 30.4375 23.957031 31.269531 24.125 32.03125 L 24.28125 32.6875 L 24.9375 32.78125 L 28 33.25 L 28 34.78125 L 24.9375 35.3125 L 24.34375 35.40625 L 24.15625 35.96875 C 23.855469 36.867188 23.574219 37.707031 23.15625 38.375 L 22.78125 38.9375 L 23.1875 39.46875 L 25 42 L 23.875 43.09375 L 21.375 41.28125 L 20.84375 40.90625 L 20.28125 41.25 C 19.5625 41.699219 18.730469 42.050781 17.96875 42.21875 L 17.34375 42.375 L 17.21875 43.03125 L 16.6875 46 L 15.15625 46 L 14.59375 42.4375 L 14.03125 42.25 C 13.132813 41.949219 12.292969 41.667969 11.625 41.25 L 11.0625 40.90625 L 10.53125 41.28125 L 8 43 L 6.90625 41.90625 L 8.6875 39.5 L 9.125 38.9375 L 8.75 38.375 C 8.300781 37.65625 7.949219 36.855469 7.78125 36.09375 L 7.625 35.4375 L 6.96875 35.3125 L 4 34.78125 L 4 33.21875 L 6.96875 32.6875 L 7.5625 32.5625 L 7.75 32.03125 C 8.050781 31.132813 8.332031 30.292969 8.75 29.625 L 9.09375 29.0625 L 8.71875 28.53125 L 7 26 L 8.125 24.90625 L 10.625 26.71875 L 11.15625 27.09375 L 11.71875 26.75 C 12.4375 26.300781 13.269531 25.949219 14.03125 25.78125 L 14.6875 25.625 L 14.78125 24.96875 Z M 16 29 C 13.253906 29 11 31.253906 11 34 C 11 36.746094 13.253906 39 16 39 C 18.746094 39 21 36.746094 21 34 C 21 31.253906 18.746094 29 16 29 Z M 16 31 C 17.65625 31 19 32.34375 19 34 C 19 35.65625 17.65625 37 16 37 C 14.34375 37 13 35.65625 13 34 C 13 32.34375 14.34375 31 16 31 Z"></path>
  </symbol>
  <symbol xmlns="http://www.w3.org/2000/svg" viewBox="0 0 30 30" id="search">
    <path d="M 13 3 C 7.4889971 3 3 7.4889971 3 13 C 3 18.511003 7.4889971 23 13 23 C 15.396508 23 17.597385 22.148986 19.322266 20.736328 L 25.292969 26.707031 A 1.0001 1.0001 0 1 0 26.707031 25.292969 L 20.736328 19.322266 C 22.148986 17.597385 23 15.396508 23 13 C 23 7.4889971 18.511003 3 13 3 z M 13 5 C 17.430123 5 21 8.5698774 21 13 C 21 17.430123 17.430123 21 13 21 C 8.5698774 21 5 17.430123 5 13 C 5 8.5698774 8.5698774 5 13 5 z"></path>
  </symbol>
  <symbol version="1.0" xmlns="http://www.w3.org/2000/svg" preserveAspectRatio="xMidYMid meet" viewBox="0 0 20.000000 20.000000" id="quote">
    <metadata>Created by potrace 1.16, written by Peter Selinger 2001-2019</metadata>
    <g transform="translate(0.000000,20.000000) scale(0.100000,-0.100000)" fill="#000000" stroke="none"></g>
  </symbol>
  <symbol xmlns="http://www.w3.org/2000/svg" viewBox="0 0 50 50" id="snap">
    <path d="M 0 4 L 0 46 L 50 46 L 50 4 Z M 2 6 L 48 6 L 48 44 L 2 44 Z M 4 8 L 4 30.78125 C 3.972656 30.914063 3.972656 31.054688 4 31.1875 L 4 42 L 46 42 L 46 37.15625 C 46.027344 37.023438 46.027344 36.882813 46 36.75 L 46 8 Z M 6 10 L 44 10 L 44 34.5625 L 34.71875 25.28125 C 34.496094 25.0625 34.183594 24.957031 33.875 25 C 33.652344 25.023438 33.441406 25.125 33.28125 25.28125 L 29.03125 29.53125 L 18.75 18.3125 C 18.519531 18.0625 18.179688 17.941406 17.84375 18 C 17.644531 18.027344 17.460938 18.117188 17.3125 18.25 L 6 28.6875 Z M 35 15 C 33.34375 15 32 16.34375 32 18 C 32 19.65625 33.34375 21 35 21 C 36.65625 21 38 19.65625 38 18 C 38 16.34375 36.65625 15 35 15 Z M 17.9375 20.4375 L 27.59375 30.96875 L 25.28125 33.28125 C 24.882813 33.679688 24.882813 34.320313 25.28125 34.71875 C 25.679688 35.117188 26.320313 35.117188 26.71875 34.71875 L 29.5625 31.84375 C 29.703125 31.757813 29.820313 31.640625 29.90625 31.5 L 34 27.4375 L 44 37.4375 L 44 40 L 6 40 L 6 31.46875 Z"></path>
  </symbol>
  <symbol xmlns="http://www.w3.org/2000/svg" viewBox="0 0 50 50" id="wordpress">
    <path d="M 25 2 C 12.311335 2 2 12.311335 2 25 C 2 37.688665 12.311335 48 25 48 C 37.688665 48 48 37.688665 48 25 C 48 12.311335 37.688665 2 25 2 z M 25 4 C 36.607335 4 46 13.392665 46 25 C 46 36.607335 36.607335 46 25 46 C 13.392665 46 4 36.607335 4 25 C 4 13.392665 13.392665 4 25 4 z M 25 6 C 14.513273 6 6 14.513273 6 25 C 6 35.486727 14.513273 44 25 44 C 35.486727 44 44 35.486727 44 25 C 44 14.513273 35.486727 6 25 6 z M 25 8 C 28.972457 8 32.611711 9.3659473 35.501953 11.638672 C 34.996253 12.258468 34.699219 13.053218 34.699219 13.900391 C 34.699219 15.500391 35.599609 16.9 36.599609 18.5 C 37.399609 19.8 38.199219 21.500391 38.199219 23.900391 C 38.199219 25.600391 37.699219 27.700781 36.699219 30.300781 L 34.699219 36.900391 L 27.599609 15.699219 C 28.799609 15.599219 29.900391 15.5 29.900391 15.5 C 30.900391 15.4 30.800781 13.900391 29.800781 13.900391 L 29.699219 13.900391 C 29.699219 13.900391 26.500391 14.199219 24.400391 14.199219 C 22.500391 14.199219 19.199219 13.900391 19.199219 13.900391 L 19.099609 13.900391 C 18.099609 13.900391 18 15.5 19 15.5 C 19 15.5 19.999609 15.599219 21.099609 15.699219 L 24.199219 24.099609 L 19.900391 37 L 12.699219 15.599609 C 13.899219 15.499609 15 15.400391 15 15.400391 C 16 15.300391 15.900391 13.800781 14.900391 13.800781 L 14.800781 13.800781 C 14.800781 13.800781 13.489398 13.908495 12.044922 13.996094 C 15.160169 10.329869 19.798156 8 25 8 z M 37.087891 13.041016 C 38.448711 14.416493 39.563287 16.029037 40.392578 17.804688 C 40.371407 18.936367 40.18331 20.06754 39.900391 21.199219 C 39.500391 19.799219 39.000391 18.599609 38.400391 17.599609 L 38.199219 17.199219 C 37.399219 15.899219 36.800781 14.9 36.800781 14 C 36.800781 13.657445 36.90014 13.319256 37.087891 13.041016 z M 23.599609 16.099609 L 24.599609 16.099609 C 24.999609 16.199609 25.300781 16.199219 25.800781 16.199219 L 25.900391 16.400391 L 33 37.599609 L 33.697266 39.595703 C 33.315814 39.823057 32.925515 40.03486 32.525391 40.232422 L 27.199219 26 L 26.5 24.099609 L 26.300781 23.400391 L 23.599609 16.099609 z M 10.466797 16.199219 L 10.900391 16.199219 L 11 16.400391 L 18.199219 37.800781 L 18.800781 39.599609 L 18.457031 40.697266 C 18.182132 40.58291 17.919668 40.446492 17.652344 40.318359 L 9.5175781 17.994141 C 9.7979121 17.37391 10.116921 16.776828 10.466797 16.199219 z M 41.585938 21.294922 C 41.850288 22.488424 42 23.72552 42 25 C 42 30.25918 39.623202 34.947175 35.886719 38.0625 L 40.599609 24.400391 C 41.036946 23.287576 41.352417 22.261425 41.585938 21.294922 z M 8.3671875 21.472656 L 14.580078 38.423828 C 10.579353 35.316928 8 30.471959 8 25 C 8 23.789693 8.1281354 22.610588 8.3671875 21.472656 z M 25 26.599609 L 30.341797 41.134766 C 28.661425 41.688806 26.868914 42 25 42 C 23.258628 42 21.58037 41.735639 20 41.251953 L 25 26.599609 z"></path>
  </symbol>
</svg>